<svg width="20" height="21" viewBox="0 0 20 21" fill="none" xmlns="http://www.w3.org/2000/svg">
<path d="M7.17484 15.4936C7.17484 15.568 7.08924 15.6276 6.9813 15.6276C6.85847 15.6387 6.77286 15.5792 6.77286 15.4936C6.77286 15.4191 6.85847 15.3596 6.96641 15.3596C7.07807 15.3484 7.17484 15.408 7.17484 15.4936ZM6.01729 15.3261C5.99124 15.4005 6.06568 15.4861 6.17734 15.5085C6.27411 15.5457 6.38577 15.5085 6.40811 15.434C6.43044 15.3596 6.35972 15.274 6.24806 15.2405C6.15129 15.2144 6.04335 15.2516 6.01729 15.3261ZM7.66243 15.2628C7.55449 15.2889 7.48005 15.3596 7.49121 15.4452C7.50238 15.5196 7.59915 15.568 7.71081 15.542C7.81875 15.5159 7.89319 15.4452 7.88203 15.3707C7.87086 15.3 7.77037 15.2516 7.66243 15.2628ZM10.1115 1C4.94907 1 1 4.91929 1 10.0817C1 14.2095 3.59798 17.7417 7.30884 18.9848C7.78525 19.0704 7.95275 18.7764 7.95275 18.5345C7.95275 18.3037 7.94158 17.0308 7.94158 16.2491C7.94158 16.2491 5.33616 16.8074 4.78902 15.14C4.78902 15.14 4.36471 14.0569 3.7543 13.7777C3.7543 13.7777 2.90196 13.1934 3.81385 13.2045C3.81385 13.2045 4.74064 13.279 5.25055 14.1648C6.06568 15.6015 7.43166 15.1884 7.96391 14.9427C8.04952 14.3472 8.29145 13.934 8.55944 13.6884C6.47882 13.4576 4.3796 13.1561 4.3796 9.57555C4.3796 8.55199 4.66247 8.03835 5.258 7.38328C5.16123 7.14134 4.84485 6.14384 5.35477 4.85602C6.13268 4.61409 7.92297 5.86097 7.92297 5.86097C8.66738 5.65253 9.46761 5.5446 10.2604 5.5446C11.0532 5.5446 11.8534 5.65253 12.5978 5.86097C12.5978 5.86097 14.3881 4.61037 15.166 4.85602C15.676 6.14756 15.3596 7.14134 15.2628 7.38328C15.8583 8.04208 16.2231 8.55571 16.2231 9.57555C16.2231 13.1673 14.0308 13.4539 11.9502 13.6884C12.2926 13.9824 12.5829 14.5407 12.5829 15.4154C12.5829 16.6697 12.5718 18.2218 12.5718 18.527C12.5718 18.769 12.743 19.063 13.2157 18.9774C16.9377 17.7417 19.4613 14.2095 19.4613 10.0817C19.4613 4.91929 15.274 1 10.1115 1ZM4.61781 13.8373C4.56942 13.8745 4.58059 13.9601 4.64386 14.0308C4.70342 14.0904 4.78902 14.1164 4.83741 14.068C4.8858 14.0308 4.87463 13.9452 4.81136 13.8745C4.7518 13.8149 4.6662 13.7889 4.61781 13.8373ZM4.21583 13.5358C4.18978 13.5842 4.227 13.6437 4.30144 13.6809C4.36099 13.7182 4.43543 13.707 4.46149 13.6549C4.48754 13.6065 4.45032 13.547 4.37588 13.5097C4.30144 13.4874 4.24189 13.4986 4.21583 13.5358ZM5.42177 14.8608C5.36222 14.9092 5.38455 15.0209 5.47015 15.0916C5.55576 15.1772 5.6637 15.1884 5.71209 15.1288C5.76047 15.0804 5.73814 14.9688 5.6637 14.898C5.58182 14.8124 5.47015 14.8013 5.42177 14.8608ZM4.99746 14.3137C4.9379 14.3509 4.9379 14.4477 4.99746 14.5333C5.05701 14.6189 5.1575 14.6561 5.20589 14.6189C5.26544 14.5705 5.26544 14.4737 5.20589 14.3881C5.15378 14.3025 5.05701 14.2653 4.99746 14.3137Z" fill="#0058AD"/>
</svg>
