<svg width="20" height="21" viewBox="0 0 20 21" fill="none" xmlns="http://www.w3.org/2000/svg">
<path d="M16.8571 2H3.13929C2.51071 2 2 2.51786 2 3.15357V16.8464C2 17.4821 2.51071 18 3.13929 18H16.8571C17.4857 18 18 17.4821 18 16.8464V3.15357C18 2.51786 17.4857 2 16.8571 2ZM6.83571 15.7143H4.46429V8.07857H6.83929V15.7143H6.83571ZM5.65 7.03571C4.88929 7.03571 4.275 6.41786 4.275 5.66071C4.275 4.90357 4.88929 4.28571 5.65 4.28571C6.40714 4.28571 7.025 4.90357 7.025 5.66071C7.025 6.42143 6.41071 7.03571 5.65 7.03571ZM15.725 15.7143H13.3536V12C13.3536 11.1143 13.3357 9.975 12.1214 9.975C10.8857 9.975 10.6964 10.9393 10.6964 11.9357V15.7143H8.325V8.07857H10.6V9.12143H10.6321C10.95 8.52143 11.725 7.88929 12.8786 7.88929C15.2786 7.88929 15.725 9.47143 15.725 11.5286V15.7143Z" fill="#0058AD"/>
</svg>
